<?xml version="1.0" encoding="UTF-8" standalone="no"?>
<svg
   xmlns:dc="http://purl.org/dc/elements/1.1/"
   xmlns:cc="http://creativecommons.org/ns#"
   xmlns:rdf="http://www.w3.org/1999/02/22-rdf-syntax-ns#"
   xmlns:svg="http://www.w3.org/2000/svg"
   xmlns="http://www.w3.org/2000/svg"
   xmlns:sodipodi="http://sodipodi.sourceforge.net/DTD/sodipodi-0.dtd"
   xmlns:inkscape="http://www.inkscape.org/namespaces/inkscape"
   viewBox="0 0 700.00003 700"
   version="1.1"
   id="svg12"
   sodipodi:docname="mlb-logo.svg"
   width="700"
   height="700"
   inkscape:version="0.92.3 (2405546, 2018-03-11)"
   inkscape:export-filename="C:\Users\alex\sites\mlb-logo-0.png"
   inkscape:export-xdpi="561.73999"
   inkscape:export-ydpi="561.73999">
  <metadata
     id="metadata18">
    <rdf:RDF>
      <cc:Work
         rdf:about="">
        <dc:format>image/svg+xml</dc:format>
        <dc:type
           rdf:resource="http://purl.org/dc/dcmitype/StillImage" />
        <dc:title></dc:title>
      </cc:Work>
    </rdf:RDF>
  </metadata>
  <defs
     id="defs16" />
  <sodipodi:namedview
     pagecolor="#ffffff"
     bordercolor="#666666"
     borderopacity="1"
     objecttolerance="10"
     gridtolerance="10"
     guidetolerance="10"
     inkscape:pageopacity="0"
     inkscape:pageshadow="2"
     inkscape:window-width="1600"
     inkscape:window-height="838"
     id="namedview14"
     showgrid="false"
     inkscape:zoom="0.57943472"
     inkscape:cx="6.1442847"
     inkscape:cy="256.87018"
     inkscape:window-x="-8"
     inkscape:window-y="-8"
     inkscape:window-maximized="1"
     inkscape:current-layer="svg12" />
  <path
     d="M 583.83704,192.2764 H 116.03322 a 47.148454,47.148454 0 0 0 -33.170421,13.49603 46.622635,46.622635 0 0 0 -13.62748,33.38951 v 208.75023 a 46.27209,46.27209 0 0 0 13.583658,33.25807 46.841727,46.841727 0 0 0 33.214243,13.71511 h 467.80382 a 46.929364,46.929364 0 0 0 46.71028,-46.97318 V 239.11812 A 46.491181,46.491181 0 0 0 583.83704,192.2764 Z"
     id="path2"
     inkscape:connector-curvature="0"
     style="fill:#ffffff;stroke-width:4.3818264"
     inkscape:export-filename="C:\Users\alex\sites\mlb-logo-4.png"
     inkscape:export-xdpi="119.67199"
     inkscape:export-ydpi="119.67199" />
  <path
     d="M 614.11546,239.11812 A 30.05933,30.05933 0 0 0 583.83704,208.70826 H 453.08333 l 75.01687,125.36406 6.92329,0.87635 4.38183,5.7402 v 5.34583 l 4.73238,0.96399 4.38181,5.95929 v 5.17056 l 4.90765,0.87637 4.95146,5.38963 v 11.91859 a 81.239065,81.239065 0 0 0 19.71822,13.14547 c 6.61656,2.54146 7.36148,13.14548 11.34893,18.79804 4.99529,8.23783 11.83095,11.5242 10.38494,16.12511 -3.3302,12.31294 -15.94985,33.08279 -27.69315,34.04679 h -46.44737 v 19.8935 h 58.19067 a 30.409876,30.409876 0 0 0 30.27842,-30.67279 V 239.11812"
     id="path4"
     inkscape:connector-curvature="0"
     style="fill:#bf0d3e;stroke-width:4.3818264"
     inkscape:export-filename="C:\Users\alex\sites\mlb-logo-4.png"
     inkscape:export-xdpi="119.67199"
     inkscape:export-ydpi="119.67199" />
  <path
     d="m 294.24211,458.73528 h -22.47877 c 0,-56.17503 18.97332,-87.24217 41.71499,-93.42054 3.11111,-0.56965 1.62128,-15.90604 -2.32237,-20.59459 h -13.14548 c -2.10328,0 -0.87635,-3.94364 -0.87635,-3.94364 l 10.64783,-22.74168 -1.44601,-6.22221 h -39.3488 l 32.33789,-22.61021 c 1.48982,-59.63666 62.66012,-64.2814 99.51129,-39.43644 21.90913,14.50385 23.57421,43.24863 21.90913,63.09831 -0.26292,1.27072 -5.69639,0.43816 -5.69639,0.43816 0,0 -3.72454,21.90915 6.00311,21.90915 h 42.98572 c 17.5273,-0.7011 34.44117,11.17365 34.44117,11.17365 l 4.11891,-15.02966 -94.16546,-122.64732 h -292.3993 a 30.672786,30.672786 0 0 0 -21.646226,8.76364 30.366059,30.366059 0 0 0 -8.763649,21.64622 v 208.79405 a 29.971694,29.971694 0 0 0 8.763649,21.55858 30.672786,30.672786 0 0 0 21.646226,8.98275 h 189.82074 c -4.64474,-7.97492 -9.94676,-17.04531 -11.56803,-19.71822"
     id="path6"
     inkscape:connector-curvature="0"
     style="fill:#041e42;stroke-width:4.3818264"
     inkscape:export-filename="C:\Users\alex\sites\mlb-logo-4.png"
     inkscape:export-xdpi="119.67199"
     inkscape:export-ydpi="119.67199" />
  <path
     d="m 127.77652,414.43501 a 20.769858,20.769858 0 1 1 20.59458,20.76986 20.550766,20.550766 0 0 1 -20.59458,-20.76986 m 498.73951,83.16707 c 0,-2.36619 -1.40218,-2.67291 -3.41782,-2.67291 h -4.38184 v 8.76366 h 1.84037 v -3.46166 h 1.48983 l 2.01564,3.46166 h 2.05946 l -2.10328,-3.46166 a 2.2785498,2.2785498 0 0 0 2.32236,-2.58527 m -3.37399,1.00782 h -2.45383 v -2.1471 h 2.01563 c 0.87637,0 1.97183,0 1.97183,0.964 0,0.964 -0.52582,1.1831 -1.53363,1.1831"
     id="path8"
     inkscape:connector-curvature="0"
     style="fill:#ffffff;stroke-width:4.3818264"
     inkscape:export-filename="C:\Users\alex\sites\mlb-logo-4.png"
     inkscape:export-xdpi="119.67199"
     inkscape:export-ydpi="119.67199" />
  <path
     d="m 622.35329,490.8979 a 8.4131072,8.4131072 0 1 0 8.4131,8.45692 8.3254706,8.3254706 0 0 0 -8.4131,-8.45692 m 0,15.02965 a 6.572745,6.572745 0 0 1 0,-13.14549 6.572745,6.572745 0 0 1 0,13.14549"
     id="path10"
     inkscape:connector-curvature="0"
     style="fill:#ffffff;stroke-width:4.3818264"
     inkscape:export-filename="C:\Users\alex\sites\mlb-logo-4.png"
     inkscape:export-xdpi="119.67199"
     inkscape:export-ydpi="119.67199" />
</svg>
